:SAMPLES-PER-SECOND 30
:FULLY-SPECIFIED
:DEGREES
570
root  -25.227 40.3794 -9.19496 1.29428 15.3139 0.483139
RightUpLeg  5.62319 -17.8004 -18.9909
RightLeg  10.9543 -46.0888 0.515684
RightFoot  2.02326 -1.02177 8.86778
RightToes  0.00048216 0.542163 -0.142577
Spine  15.0438 -0.0496238 7.72637
Spine1  6.39336 2.26242 -5.2208
HEad  -26.5401 46.6236 -30.0024
LeftShoulder1  9.55526 -13.9321 -47.8375
LeftArm  -10.855 14.6244 -24.3472
LeftForeArm  92.4329 -79.6662 -96.347
LeftHand  -0.25398 0.0180481 5.50724
RightShoulder  4.27424 7.96256 31.3295
RightArm  -12.7349 -36.0969 23.3324
RightForeArm  61.1939 76.7532 113.992
RightHand  0.317242 -13.7207 -5.56877
LeftUpLeg  -16.9028 33.534 -1.13848
LeftLeg  15.9437 23.2834 5.63825
LeftFoot  -2.95138 -0.050244 0.90544
LeftToes  1.06244e-005 4.65855e-005 -8.18506e-006
571
root  -23.983 40.1641 -8.79541 1.91234 19.9187 1.04352
RightUpLeg  7.01065 -19.2555 -21.1473
RightLeg  12.7072 -44.2122 -1.22528
RightFoot  -0.596987 -0.856536 8.97469
RightToes  0.00048216 0.542163 -0.142577
Spine  12.9502 0.283471 6.1598
Spine1  7.11566 2.23305 -4.54279
HEad  -23.8412 44.5178 -26.8921
LeftShoulder1  9.48935 -13.8871 -47.6266
LeftArm  -10.1957 14.5297 -24.6709
LeftForeArm  94.9444 -79.6249 -98.6383
LeftHand  -0.25398 0.0180481 5.50724
RightShoulder  4.20817 7.86548 31.0644
RightArm  -12.4224 -37.2939 22.5747
RightForeArm  63.2573 76.4206 116.86
RightHand  0.323203 -14.009 -5.49979
LeftUpLeg  -18.0619 40.7167 -4.89686
LeftLeg  17.1645 15.2352 4.6918
LeftFoot  -3.99242 0.0105462 0.24773
LeftToes  1.06244e-005 4.65855e-005 -8.18506e-006
572
root  -22.7947 39.9813 -8.48924 0.858002 24.6667 1.10583
RightUpLeg  8.31385 -21.0734 -21.9035
RightLeg  15.115 -34.5113 -3.74104
RightFoot  -5.40092 -0.36261 6.02181
RightToes  0.00048216 0.542163 -0.142577
Spine  13.4648 0.204258 5.24678
Spine1  7.09786 2.00304 -4.05596
HEad  -21.5184 42.2318 -24.3207
LeftShoulder1  9.33556 -13.7716 -47.1598
LeftArm  -9.21379 13.6296 -24.8176
LeftForeArm  94.9831 -79.6292 -98.6385
LeftHand  -0.25398 0.0180481 5.50724
RightShoulder  4.17989 7.82011 30.962
RightArm  -12.0344 -38.1486 21.9432
RightForeArm  63.6317 76.1569 118.693
RightHand  0.36896 -13.6376 -6.33086
LeftUpLeg  -17.0329 42.9047 -6.30343
LeftLeg  18.8603 8.23469 3.53424
LeftFoot  -6.32594 -0.0312727 1.63768
LeftToes  1.06244e-005 4.65855e-005 -8.18506e-006
573
root  -21.7085 39.8462 -8.252 -0.216003 28.8276 1.51048
RightUpLeg  7.40475 -22.5259 -21.3551
RightLeg  18.3959 -18.7577 -5.35294
RightFoot  -10.0139 -0.0852656 2.04379
RightToes  0.00048216 0.542163 -0.142577
Spine  14.5285 0.167323 4.14361
Spine1  7.29213 1.84246 -3.88507
HEad  -19.752 40.1507 -22.6334
LeftShoulder1  9.2111 -13.7042 -46.7033
LeftArm  -8.39111 12.0686 -24.6565
LeftForeArm  91.7227 -79.6753 -95.68
LeftHand  -0.25398 0.0180481 5.50724
RightShoulder  4.2183 7.89761 31.0487
RightArm  -11.9543 -38.0822 21.9247
RightForeArm  62.138 76.225 117.979
RightHand  0.391928 -13.1795 -6.97422
LeftUpLeg  -14.5269 39.9081 -6.30948
LeftLeg  20.3592 7.14077 3.26122
LeftFoot  -8.81912 -0.0117689 2.83967
LeftToes  1.06244e-005 4.65855e-005 -8.18506e-006
574
root  -20.6788 39.7487 -7.97639 -0.527908 31.8978 2.26601
RightUpLeg  3.9113 -17.2335 -19.0481
RightLeg  23.2087 -8.56623 -4.42358
RightFoot  -12.1572 -0.0756599 0.26107
RightToes  0.00048216 0.542163 -0.142577
Spine  14.5944 0.420932 2.65605
Spine1  8.11857 1.87355 -3.76835
HEad  -17.9057 38.6887 -21.3269
LeftShoulder1  9.12175 -13.6752 -46.3179
LeftArm  -8.04439 10.6586 -24.3168
LeftForeArm  86.9669 -79.7031 -91.337
LeftHand  -0.25398 0.0180481 5.50724
RightShoulder  4.29728 8.04407 31.2655
RightArm  -11.7523 -37.0323 22.115
RightForeArm  59.4292 76.5655 115.076
RightHand  0.383908 -13.0144 -6.99307
LeftUpLeg  -12.1654 37.3667 -6.79636
LeftLeg  21.0616 7.33558 3.46893
LeftFoot  -10.6923 0.0481698 2.72227
LeftToes  1.06244e-005 4.65855e-005 -8.18506e-006
575
root  -19.6461 39.735 -7.62199 -0.597931 34.3834 2.70818
RightUpLeg  -0.18265 -11.0383 -16.3156
RightLeg  27.6446 -4.19176 -2.64453
RightFoot  -12.0507 -0.0743173 1.32324
RightToes  0.00048216 0.542163 -0.142577
Spine  14.022 0.678574 1.23196
Spine1  8.83805 1.80836 -3.37298
HEad  -15.565 37.792 -19.7049
LeftShoulder1  8.96712 -13.5619 -45.8191
LeftArm  -8.19852 10.0884 -24.1546
LeftForeArm  83.1523 -79.6868 -87.7536
LeftHand  -0.25398 0.0180481 5.50724
RightShoulder  4.37131 8.16295 31.5232
RightArm  -11.018 -35.601 22.1203
RightForeArm  56.3456 76.8749 111.958
RightHand  0.391725 -13.0279 -7.09557
LeftUpLeg  -9.35352 36.4804 -6.81973
LeftLeg  20.4939 6.11066 2.68518
LeftFoot  -11.955 0.0844791 2.30647
LeftToes  1.06244e-005 4.65855e-005 -8.18506e-006
576
root  -18.5938 39.8235 -7.22993 -0.852997 37.5059 2.57068
RightUpLeg  -3.80657 -7.74748 -13.43
RightLeg  30.4185 -4.16866 -2.89111
RightFoot  -11.7725 -0.0698431 2.69333
RightToes  0.00048216 0.542163 -0.142577
Spine  13.5431 0.479791 0.174638
Spine1  8.99671 1.19375 -2.56656
HEad  -13.321 36.902 -17.9083
LeftShoulder1  8.7684 -13.3833 -45.2581
LeftArm  -8.6205 10.1906 -24.264
LeftForeArm  80.6106 -79.6553 -85.3062
LeftHand  -0.25398 0.0180481 5.50724
RightShoulder  4.40741 8.2106 31.68
RightArm  -10.1892 -34.5768 22.2162
RightForeArm  53.937 76.9846 110.437
RightHand  0.443607 -12.8467 -8.03299
LeftUpLeg  -5.82096 33.2018 -5.82715
LeftLeg  18.8519 6.21944 0.962394
LeftFoot  -12.8134 0.103133 2.04179
LeftToes  1.06244e-005 4.65855e-005 -8.18506e-006
577
root  -17.5457 39.9678 -6.82496 -1.47383 41.5446 1.90125
RightUpLeg  -6.98926 -6.67443 -10.4014
RightLeg  31.4256 -6.37353 -4.41611
RightFoot  -11.5562 -0.07282 1.83605
RightToes  0.00048216 0.542163 -0.142577
Spine  13.5522 -0.100931 -0.439396
Spine1  8.80292 0.154325 -1.433
HEad  -12.0411 35.5409 -16.5764
LeftShoulder1  8.64417 -13.2824 -44.8698
LeftArm  -8.92002 10.3214 -24.4032
LeftForeArm  78.6207 -79.6161 -83.4532
LeftHand  -0.25398 0.0180481 5.50724
RightShoulder  4.40163 8.1997 31.6654
RightArm  -9.96238 -34.3834 22.686
RightForeArm  53.0982 76.9338 110.723
RightHand  0.498237 -12.3503 -9.4044
LeftUpLeg  -2.19007 25.6272 -4.52467
LeftLeg  16.6829 9.834 -0.737727
LeftFoot  -13.2255 0.104609 1.52411
LeftToes  1.06244e-005 4.65855e-005 -8.18506e-006
578
root  -16.4954 40.0898 -6.39689 -2.1683 45.5761 1.08832
RightUpLeg  -10.2998 -6.89826 -7.59651
RightLeg  30.7353 -7.35081 -4.93226
RightFoot  -9.99739 -0.0716013 0.307782
RightToes  0.00048216 0.542163 -0.142577
Spine  13.6864 -0.555368 -0.754756
Spine1  8.66899 -0.672483 -0.394581
HEad  -11.7228 33.703 -15.7249
LeftShoulder1  8.60416 -13.294 -44.6208
LeftArm  -8.80909 10.1483 -24.4872
LeftForeArm  77.3924 -79.5859 -82.3358
LeftHand  -0.25398 0.0180481 5.50724
RightShoulder  4.38597 8.17636 31.6062
RightArm  -10.5326 -35.0019 23.3553
RightForeArm  54.03 76.7999 112.122
RightHand  0.510415 -11.9132 -10.1732
LeftUpLeg  1.07603 17.146 -3.90874
LeftLeg  14.1173 14.4367 -2.23262
LeftFoot  -13.3352 0.0976065 1.0069
LeftToes  1.06244e-005 4.65855e-005 -8.18506e-006
579
root  -15.3962 40.129 -5.93277 -2.55579 49.0829 0.711227
RightUpLeg  -13.6222 -7.67234 -5.4806
RightLeg  28.5225 -6.47796 -4.03789
RightFoot  -7.20402 -0.0833239 0.819153
RightToes  0.00048216 0.542163 -0.142577
Spine  13.5346 -0.749672 -1.05402
Spine1  8.87256 -1.07456 0.121721
HEad  -11.6989 31.6889 -14.8689
LeftShoulder1  8.54872 -13.3117 -44.2705
LeftArm  -8.42062 9.76219 -24.756
LeftForeArm  77.4044 -79.5891 -82.2119
LeftHand  -0.25398 0.0180481 5.50724
RightShoulder  4.39265 8.18591 31.6327
RightArm  -11.6266 -36.07 24.0114
RightForeArm  55.9979 76.6218 113.994
RightHand  0.500014 -11.8291 -10.1213
LeftUpLeg  4.34899 9.83091 -4.21819
LeftLeg  11.1265 18.1422 -3.78168
LeftFoot  -13.5624 0.0968808 0.795102
LeftToes  1.06244e-005 4.65855e-005 -8.18506e-006
580
root  -14.1987 40.0631 -5.43091 -2.56157 52.5412 1.05916
RightUpLeg  -16.1978 -9.2872 -4.12966
RightLeg  24.9544 -5.0594 -2.78926
RightFoot  -4.99487 -0.168731 2.46899
RightToes  0.00048216 0.542163 -0.142577
Spine  13.1149 -1.05021 -1.55122
Spine1  9.48516 -1.49269 0.231722
HEad  -11.6014 29.8306 -13.9554
LeftShoulder1  8.43698 -13.2547 -43.8181
LeftArm  -8.14919 9.32853 -25.2859
LeftForeArm  78.283 -79.6174 -82.7576
LeftHand  -0.25398 0.0180481 5.50724
RightShoulder  4.4084 8.22004 31.658
RightArm  -12.7929 -37.0576 24.639
RightForeArm  58.113 76.4022 116.053
RightHand  0.494786 -11.8667 -9.98447
LeftUpLeg  7.87868 5.30548 -5.3213
LeftLeg  8.34766 19.1755 -4.73013
LeftFoot  -14.0505 0.0976569 0.57584
LeftToes  1.06244e-005 4.65855e-005 -8.18506e-006
581
root  -13.0109 39.8813 -4.91218 -1.79591 54.959 1.95715
RightUpLeg  -18.8443 -10.6282 -2.57
RightLeg  20.2539 -3.98226 -1.90609
RightFoot  -4.0904 -0.192306 2.60941
RightToes  0.00048216 0.542163 -0.142577
Spine  12.9851 -0.974417 -2.4329
Spine1  9.43758 -1.53134 0.367112
HEad  -11.5015 28.2864 -13.2862
LeftShoulder1  8.31171 -13.1285 -43.4773
LeftArm  -8.0796 8.90307 -25.7499
LeftForeArm  79.4282 -79.6462 -83.7226
LeftHand  -0.25398 0.0180481 5.50724
RightShoulder  4.39084 8.20825 31.545
RightArm  -13.5764 -37.7054 25.1242
RightForeArm  60.3571 76.0993 118.516
RightHand  0.499228 -11.769 -10.2392
LeftUpLeg  10.6148 4.34891 -6.40329
LeftLeg  7.06085 18.0124 -4.75402
LeftFoot  -14.814 0.095616 0.215302
LeftToes  1.06244e-005 4.65855e-005 -8.18506e-006
582
root  -11.7601 39.6674 -4.34166 -1.21643 57.6584 2.61293
RightUpLeg  -20.3301 -11.7981 -1.12461
RightLeg  13.8261 -5.03814 -0.698046
RightFoot  -3.57455 -0.150799 1.85372
RightToes  0.00048216 0.542163 -0.142577
Spine  12.7275 -1.06992 -3.20714
Spine1  9.54432 -1.85291 0.96935
HEad  -11.4462 26.9537 -12.8038
LeftShoulder1  8.20784 -12.9842 -43.2995
LeftArm  -7.9301 8.43705 -25.8881
LeftForeArm  80.362 -79.6582 -84.8353
LeftHand  -0.25398 0.0180481 5.50724
RightShoulder  4.33931 8.11042 31.4163
RightArm  -13.8467 -38.1704 25.2446
RightForeArm  62.9128 75.6816 121.465
RightHand  0.51504 -11.6688 -10.6185
LeftUpLeg  13.4132 4.29076 -6.75499
LeftLeg  6.3221 15.5353 -4.73828
LeftFoot  -15.6482 0.0993918 0.140474
LeftToes  1.06244e-005 4.65855e-005 -8.18506e-006
583
root  -10.4453 39.3813 -3.7163 -1.25562 59.9215 2.87872
RightUpLeg  -20.1759 -7.99524 -1.72264
RightLeg  6.43838 -13.131 2.17643
RightFoot  -2.96526 -0.239086 2.97987
RightToes  0.00048216 0.542163 -0.142577
Spine  12.8309 -1.05127 -3.5306
Spine1  9.46924 -1.94871 1.29596
HEad  -11.3348 25.6807 -12.2259
LeftShoulder1  8.14676 -12.898 -43.1973
LeftArm  -7.65963 7.88589 -25.8491
LeftForeArm  80.3154 -79.6471 -85.1285
LeftHand  -0.25398 0.0180481 5.50724
RightShoulder  4.30177 7.99229 31.4739
RightArm  -13.9022 -38.4818 25.0465
RightForeArm  64.9629 75.2452 124.123
RightHand  0.53949 -11.7325 -10.9495
LeftUpLeg  16.2758 4.89161 -6.13616
LeftLeg  6.57664 12.2993 -5.02657
LeftFoot  -17.0989 0.096811 -0.0959145
LeftToes  1.06244e-005 4.65855e-005 -8.18506e-006
584
root  -8.99498 39.0163 -3.04856 -1.17256 61.9185 3.51363
RightUpLeg  -19.2498 -5.37212 -2.26279
RightLeg  0.113546 -20.27 5.77304
RightFoot  -3.38014 -0.441763 6.0732
RightToes  0.00048216 0.542163 -0.142577
Spine  12.6794 -1.0931 -3.7845
Spine1  9.75889 -2.02846 1.33821
HEad  -11.0689 24.5515 -11.6784
LeftShoulder1  8.14476 -12.9036 -43.1704
LeftArm  -7.57535 7.45001 -25.8549
LeftForeArm  79.1064 -79.6199 -84.1485
LeftHand  -0.25398 0.0180481 5.50724
RightShoulder  4.29508 7.94145 31.5823
RightArm  -13.9031 -38.3321 24.7548
RightForeArm  65.6292 74.9438 125.705
RightHand  0.577706 -11.7841 -11.5339
LeftUpLeg  19.1203 5.68568 -5.27541
LeftLeg  7.795 9.05744 -5.38935
LeftFoot  -18.4864 0.0596456 -0.824274
LeftToes  1.06244e-005 4.65855e-005 -8.18506e-006
